# xmcd
#
# Track frame offsets:
#	150
#	13239
#	24019
#	42508
#	53803
#	73700
#	82722
#	96564
#	107318
#	120917
#	138063
#	152646
#
# Disc length: 2194 seconds
#
# Revision: 0
# Processed by: cddbd v1.5.2PL0 Copyright (c) Steve Scherf et al.
# Submitted via: audiograbber 1.83.01
#
DISCID=8708900c
DTITLE=Noel Cassidy - Sentimental Journey
DYEAR=1900
DGENRE=
TTITLE0=Carroll County Accident
TTITLE1=Run To The Door
TTITLE2=My Old Sligo Home
TTITLE3=Wreck Of The Old No.9
TTITLE4=The Fields Of Athenry
TTITLE5=Hallo Trouble
TTITLE6=When The Trains Come In
TTITLE7=Tiger By The Tail
TTITLE8=Irish Eyes
TTITLE9=You Bring Me Down
TTITLE10=My Own Dear Galway Bay
TTITLE11=Streets Of Bakersfield
EXTD=
EXTT0=
EXTT1=
EXTT2=
EXTT3=
EXTT4=
EXTT5=
EXTT6=
EXTT7=
EXTT8=
EXTT9=
EXTT10=
EXTT11=
PLAYORDER=
